# xmcd
#
# Track frame offsets: 
#        150
#        46477
#        61504
#        102377
#        113350
#        133511
#        145612
#        190796
#        222512
#        233761
#        245731
#        251520
#        297605
#
# Disc length: 4185 seconds
#
# Revision: 0
# Processed by: cddbd v1.5.2PL0 Copyright (c) Steve Scherf et al.
# Submitted via: ExactAudioCopyFreeDBPlugin 1.0
#
DISCID=bc10570d
DTITLE=Zubin Mehta - Wiener Philharmoniker - Neujahrskonzert 2007_CD2
DYEAR=2007
DGENRE=Classical
TTITLE0=Overture
TTITLE1=Irenen-Polka, Polka francaise, Op. 113
TTITLE2=Wo die Zitronen bluh'n, Op.364
TTITLE3=Ohne Bremse - Polka schnell, Op.238
TTITLE4=Stadt und Land, Op.322
TTITLE5=Matrosen-Polka, Op. 52
TTITLE6=Dynamiden, Op.173
TTITLE7=Erinnerungen an Ernst (Der Karvneval von Venedig)
TTITLE8=Furioso-Galopp, Op. 114
TTITLE9=Leichtfussig (Polka schnell)
TTITLE10=New Year's Address
TTITLE11=An der schonen blauen Donau, Op.314
TTITLE12=Radetzky-Marsch, Op.228 - Arr. Leopold Weninger
EXTD=
EXTT0=
EXTT1=
EXTT2=
EXTT3=
EXTT4=
EXTT5=
EXTT6=
EXTT7=
EXTT8=
EXTT9=
EXTT10=
EXTT11=
EXTT12=
PLAYORDER=
